<svg xmlns="http://www.w3.org/2000/svg" width="240" height="240" fill="none"><path fill="#326CE5" d="M119.2 19.02c-1.84.09-3.64.55-5.3 1.34L41.68 54.88a13.8 13.8 0 0 0-7.48 9.3L16.37 141.7a13.6 13.6 0 0 0 2.66 11.6l50 62.17a13.79 13.79 0 0 0 10.8 5.15l80.2-.02a13.9 13.9 0 0 0 10.8-5.14l49.98-62.18a13.67 13.67 0 0 0 2.67-11.6l-17.85-77.54a13.66 13.66 0 0 0-7.48-9.3l-72.25-34.5c-2.08-.99-4.39-1.45-6.7-1.33Z"/><g filter="url(#a)"><path fill="#fff" d="M87.25 104.78H37.83l4.26-6 30.74.08 11.05-15.45 18.6-.04-15.23 21.41Zm100.42-21.32L176.8 98.64l21.6.05 4.33 6.1h-48.88l24.4-34.3 9.42 12.97Zm-46.15-21.22 10.85-15.16h9.21l4.72 6.62-15.46 21.56 10.97 15.5-9.26 13.1-40.34-56.72 18.54-.14 10.77 15.24Zm-38.16 6.42 22.02.03 9.35 13.06h-80.7l9.12-13.1 21.64.05-10.75-15.2 4.61-6.48h9.42l15.3 21.64Z"/></g><g filter="url(#b)"><path fill="#fff" d="m128.27 201.44-18.54.14-10.77-15.24L88.1 201.5H78.9l-4.72-6.62 15.45-21.56-10.97-15.5 9.26-13.1 40.35 56.72Zm58.01-34.74-9.12 13.1-21.65-.04 10.75 15.2-4.6 6.47h-9.42l-15.3-21.64-22.01-.03-9.35-13.06h80.7Zm-99.03-23.92-25.12 35.3-9.42-12.96 10.88-15.19-21.6-.05-4.6-6.47.44-.63h49.42Zm115.48 0 .27.38-4.7 6.63-30.74-.08-11.05 15.45-18.61.04 15.95-22.42h48.88Z"/></g><g filter="url(#c)"><path fill="#fff" d="M43.33 122.43v9.47c.9.33 1.55.77 1.97 1.32l-.35 2.78H37.9l-.37-2.78c.45-.55 1.1-.99 1.99-1.32v-16.64a4.25 4.25 0 0 1-2.06-1.32l.35-2.78h7.42l7.17 13.98c.27.5.53 1.1.77 1.77.26.67.52 1.42.78 2.25l.24.86.4-.14a34.73 34.73 0 0 1-.5-5.25v-9.34a4.3 4.3 0 0 1-1.97-1.35l.35-2.78h7.05l.37 2.78a4.55 4.55 0 0 1-1.99 1.35V136h-5.64l-7.24-14.08a22.9 22.9 0 0 1-1.55-4.06l-.24-.83-.4.14c.33 2.14.5 3.89.5 5.26Zm23.93-8.28.35-2.99h8.44l.35 2.99c-.39.46-1.04.86-1.97 1.21v16.46c.93.37 1.58.77 1.97 1.2l-.35 2.98H67.6l-.35-2.99c.31-.4.98-.8 1.98-1.2v-16.45c-1-.35-1.65-.75-1.98-1.21Zm26.58 6.63h.55c.12-.54.56-1.5 1.3-2.89l1.37-2.6a4.58 4.58 0 0 1-1.78-1.14l.37-2.99h8.21l.35 2.99c-.44.53-1.25.98-2.4 1.37l-4.68 7.56 4.85 8.67c1.06.37 1.8.8 2.2 1.26l-.36 2.99H95.4l-.36-2.99c.3-.34.8-.67 1.5-1l-1.65-3.53c-.6-1.25-1-2.23-1.19-2.96l-.1-.38h-.55c-.22.83-.65 1.92-1.28 3.27l-1.62 3.44a5.1 5.1 0 0 1 1.8 1.16l-.38 2.99h-8.2l-.36-2.99a5.34 5.34 0 0 1 2.41-1.37l4.9-8.6-4.67-7.59c-1.13-.39-1.87-.82-2.23-1.3l.35-2.99h8.42l.37 2.99c-.32.39-.8.7-1.44.97l1.44 2.7a27.62 27.62 0 0 1 1.28 2.96Zm31.31 8.63 2.66.33V136h-16.5l-.34-2.99c.31-.4.97-.8 1.98-1.2v-16.45c-1-.35-1.66-.75-1.98-1.21l.35-2.99h8.43l.36 2.99c-.4.46-1.05.86-1.97 1.21v16.72h5.67a5.27 5.27 0 0 1 1.34-2.67Zm23.68 0 2.67.33V136H134.8l-.35-2.99c.31-.4.97-.8 1.98-1.2v-16.45c-1-.35-1.66-.75-1.98-1.21l.35-2.99h16.42v6.26l-2.66.33c-.56-.48-1-1.37-1.34-2.67h-5.6v6.19h4.99c.3-.7.6-1.2.9-1.51l2.26.26v6.4l-2.26.3c-.3-.25-.6-.75-.9-1.51h-5v6.87h5.9a5.25 5.25 0 0 1 1.33-2.67Zm11.82-12.78-2.27-.28v-5.15h20.16v5.15l-2.26.28c-.32-.22-.62-.73-.9-1.51h-4.33v16.7c.94.37 1.6.77 1.99 1.2l-.37 2.98h-8.42l-.37-2.99c.32-.4.98-.8 1.99-1.2v-16.7h-4.33c-.28.8-.58 1.3-.9 1.52Zm35.79-1.55c-.82-.2-1.67-.31-2.55-.31-.89 0-1.6.21-2.14.65a2.28 2.28 0 0 0-.83 1.88c0 .8.2 1.44.62 1.9.4.44 1.2.83 2.4 1.17l3.22.94c1.72.5 3.1 1.29 4.11 2.37 1.02 1.06 1.53 2.63 1.53 4.7a7.3 7.3 0 0 1-4.51 6.95c-1.39.63-2.95.95-4.7.95-1.44 0-2.92-.18-4.44-.54-1.53-.38-2.8-.9-3.8-1.57v-.84c0-.27.03-.68.1-1.23.09-.55.2-1.13.34-1.72.15-.61.33-1.13.53-1.55h3.42c.39.76.62 1.76.69 2.99.8.36 1.79.54 2.93.54a4.5 4.5 0 0 0 2.75-.79 2.63 2.63 0 0 0 1.09-2.27c0-.47-.04-.85-.1-1.14-.08-.3-.3-.63-.68-.97-.37-.34-.9-.62-1.6-.84l-3.7-1.07c-3.78-1.07-5.67-3.47-5.67-7.21 0-1.45.36-2.72 1.08-3.8a7.2 7.2 0 0 1 3.02-2.51c1.29-.6 2.79-.9 4.5-.9 2.57 0 5.07.58 7.5 1.74v.83a14.1 14.1 0 0 1-.46 2.97 7 7 0 0 1-.52 1.53h-3.4a5.63 5.63 0 0 1-.73-2.85Z"/></g><defs><filter id="a" width="172.9" height="65.78" x="33.83" y="43" color-interpolation-filters="sRGB" filterUnits="userSpaceOnUse"><feFlood flood-opacity="0" result="BackgroundImageFix"/><feColorMatrix in="SourceAlpha" result="hardAlpha" values="0 0 0 0 0 0 0 0 0 0 0 0 0 0 0 0 0 0 127 0"/><feOffset/><feGaussianBlur stdDeviation="2"/><feComposite in2="hardAlpha" operator="out"/><feColorMatrix values="0 0 0 0 0 0 0 0 0 0 0 0 0 0 0 0 0 0 0.25 0"/><feBlend in2="BackgroundImageFix" result="effect1_dropShadow_2010_12"/><feBlend in="SourceGraphic" in2="effect1_dropShadow_2010_12" result="shape"/></filter><filter id="b" width="173.62" height="66.8" x="33.38" y="138.78" color-interpolation-filters="sRGB" filterUnits="userSpaceOnUse"><feFlood flood-opacity="0" result="BackgroundImageFix"/><feColorMatrix in="SourceAlpha" result="hardAlpha" values="0 0 0 0 0 0 0 0 0 0 0 0 0 0 0 0 0 0 127 0"/><feOffset/><feGaussianBlur stdDeviation="2"/><feComposite in2="hardAlpha" operator="out"/><feColorMatrix values="0 0 0 0 0 0 0 0 0 0 0 0 0 0 0 0 0 0 0.25 0"/><feBlend in2="BackgroundImageFix" result="effect1_dropShadow_2010_12"/><feBlend in="SourceGraphic" in2="effect1_dropShadow_2010_12" result="shape"/></filter><filter id="c" width="173.34" height="33.42" x="33.46" y="106.86" color-interpolation-filters="sRGB" filterUnits="userSpaceOnUse"><feFlood flood-opacity="0" result="BackgroundImageFix"/><feColorMatrix in="SourceAlpha" result="hardAlpha" values="0 0 0 0 0 0 0 0 0 0 0 0 0 0 0 0 0 0 127 0"/><feOffset/><feGaussianBlur stdDeviation="2"/><feComposite in2="hardAlpha" operator="out"/><feColorMatrix values="0 0 0 0 0 0 0 0 0 0 0 0 0 0 0 0 0 0 0.25 0"/><feBlend in2="BackgroundImageFix" result="effect1_dropShadow_2010_12"/><feBlend in="SourceGraphic" in2="effect1_dropShadow_2010_12" result="shape"/></filter></defs></svg>